<svg width="97" height="99" viewBox="0 0 97 99" fill="none" xmlns="http://www.w3.org/2000/svg">
<g id="maps-and-flags 1">
<g id="Group">
<path id="Vector" d="M43.5208 2.07394C36.7629 3.2489 31.3861 6.06882 26.6671 10.8862C21.1753 16.4756 18.2156 23.4079 17.7881 31.6159C17.4592 37.8096 19.4323 45.0608 23.9376 54.1752C27.8016 61.9803 32.7344 69.7015 39.4266 78.4466C42.9453 83.0457 46.0694 86.8056 46.7929 87.2923C47.5657 87.8295 49.0126 87.8295 49.7854 87.2923C50.9035 86.537 57.793 77.8423 61.6899 72.32C70.4867 59.7982 76.3896 47.9479 78.1161 39.2867C78.7245 36.2486 78.9218 34.0162 78.7902 31.6159C78.3627 23.4079 75.4031 16.4756 69.9112 10.8862C65.11 5.9681 59.503 3.09783 52.63 2.0068C50.328 1.63753 45.8063 1.6711 43.5208 2.07394ZM52.482 17.9192C55.7706 18.9263 58.4178 20.8062 60.4567 23.5926C63.9097 28.2924 64.4687 34.3015 61.9365 39.6056C60.4238 42.778 58.0232 45.2454 54.9484 46.8065C52.9424 47.8304 51.2817 48.25 48.8647 48.3507C47.3026 48.4178 46.5627 48.3675 45.3295 48.0989C36.582 46.2526 31.1724 37.1718 33.6717 28.5274C35.283 22.9715 39.6075 18.9263 45.3459 17.6002C47.0724 17.1974 50.6405 17.3652 52.482 17.9192Z" fill="#FF3333"/>
</g>
</g>
</svg>
