<svg width="187" height="47" viewBox="0 0 187 47" fill="none" xmlns="http://www.w3.org/2000/svg">
<path id="Vector" d="M112.896 10.1692C109.119 10.1692 106.424 11.4593 105.101 13.9023L104.39 15.2253V10.806H98.2438V37.6677H104.708V21.6869C104.708 17.8687 106.783 15.6783 110.398 15.6783C113.846 15.6783 115.822 17.811 115.822 21.5277V37.6677H122.289V20.3748C122.289 13.9792 118.779 10.1692 112.896 10.1692ZM81.5465 10.1692C73.9184 10.1692 69.1945 14.9289 69.1945 22.5899V26.3614C69.1945 33.7288 73.9734 38.3045 81.6673 38.3045C86.814 38.3045 90.4209 36.4188 92.6909 32.5402L88.6833 30.2345C87.0062 32.4716 84.3271 33.8578 81.6701 33.8578C77.775 33.8578 75.4501 31.4532 75.4501 27.4237V26.3559H93.4924V21.901C93.4924 14.7642 88.8068 10.1692 81.552 10.1692H81.5465ZM87.6101 22.0135H75.4282V21.3684C75.4282 16.9464 77.5994 14.5062 81.5411 14.5062C85.3373 14.5062 87.6046 16.9107 87.6046 20.9402L87.6101 22.0135ZM186.487 6.38399V1.24552H164.127V6.38399H171.967V32.5183H164.127V37.6567H186.487V32.5183H178.645V6.38399H186.487ZM16.9451 0.504395C6.95914 0.504395 0.75016 6.7271 0.75016 16.7488V22.1672C0.75016 32.1861 6.9564 38.4116 16.9451 38.4116C26.9338 38.4116 33.1401 32.1861 33.1401 22.1672V16.7488C33.1373 6.71612 26.9229 0.504395 16.9451 0.504395ZM26.459 22.5378C26.459 29.1914 22.9922 33.0069 16.9451 33.0069C10.8981 33.0069 7.43401 29.1914 7.43401 22.5378V16.3755C7.43401 9.7218 10.9036 5.90637 16.9479 5.90637C22.9922 5.90637 26.4617 9.7218 26.4617 16.3755L26.459 22.5378ZM53.4442 10.1692C50.0515 10.1692 47.1144 11.5746 45.5828 13.927L44.8883 14.9975V10.806H38.7397V46.9098H45.2067V33.8331L45.8984 34.8597C47.3532 37.0172 50.1942 38.3045 53.4991 38.3045C59.074 38.3045 64.6983 34.662 64.6983 26.5206V21.9531C64.6983 16.0872 61.2315 10.1692 53.4442 10.1692ZM58.2313 26.205C58.2313 30.5337 55.706 33.2237 51.6435 33.2237C47.8555 33.2237 45.2122 30.38 45.2122 26.312V22.2715C45.2122 18.1542 47.8775 15.2555 51.6984 15.2555C55.7307 15.2555 58.2368 17.9428 58.2368 22.2715L58.2313 26.205ZM140.159 1.24827L127.112 37.6677H133.681L136.178 29.8612H151.177L151.201 29.9381L153.672 37.6677H160.238L147.169 1.24552L140.159 1.24827ZM137.781 24.7255L143.667 6.31262L149.491 24.7255H137.781Z" fill="black"/>
</svg>
